<svg width="137" height="78" viewBox="0 0 137 78" fill="none" xmlns="http://www.w3.org/2000/svg">
<path fill-rule="evenodd" clip-rule="evenodd" d="M97.3048 5.13058C98.8928 3.54257 101.467 3.54257 103.055 5.13058L135.28 37.3552C136.291 38.3657 136.291 40.0041 135.28 41.0147C134.269 42.0252 132.631 42.0252 131.62 41.0147L100.18 9.57429L37.6242 72.1302C36.0362 73.7182 33.4615 73.7183 31.8735 72.1302L0.757913 41.0147C-0.252638 40.0041 -0.252638 38.3657 0.757913 37.3552C1.76846 36.3446 3.40689 36.3446 4.41744 37.3552L34.7488 67.6865L97.3048 5.13058Z" fill="#14BF9A"/>
<path fill-rule="evenodd" clip-rule="evenodd" d="M99.8105 5.54504C101.24 5.54504 102.398 6.70359 102.398 8.13272V75.4124C102.398 76.8415 101.24 78 99.8105 78C98.3813 78 97.2228 76.8415 97.2228 75.4124V8.13272C97.2228 6.70359 98.3813 5.54504 99.8105 5.54504Z" fill="#14BF9A"/>
<path fill-rule="evenodd" clip-rule="evenodd" d="M34.7488 0C36.1779 0 37.3365 1.15854 37.3365 2.58768V69.8673C37.3365 71.2964 36.1779 72.455 34.7488 72.455C33.3197 72.455 32.1611 71.2964 32.1611 69.8673V2.58768C32.1611 1.15854 33.3197 0 34.7488 0Z" fill="#14BF9A"/>
</svg>
