<svg width="1535" height="482" viewBox="0 0 1535 482" fill="none" xmlns="http://www.w3.org/2000/svg">
<rect x="566.664" y="79.5302" width="75.8188" height="159.06" fill="#C4C4C4"/>
<rect x="667.403" y="39.7651" width="75.8188" height="198.826" fill="#C4C4C4"/>
<rect x="768.141" width="75.8188" height="238.591" fill="#C4C4C4"/>
<path d="M1029 14.3154L979.65 116.754L922.243 53.52L1029 14.3154Z" fill="#14BF9A"/>
<path d="M777.611 210.273L971.694 45.0383L995.816 73.3557L801.733 238.591L777.611 210.273Z" fill="#14BF9A"/>
<path d="M832.467 208.744L694.216 60.2866L663.443 88.9284L801.694 237.386L832.467 208.744Z" fill="#14BF9A"/>
<path d="M555 187.706L679.748 74.3299L707.24 103.31L555 187.706Z" fill="#14BF9A"/>
<path d="M97.92 284.36V304.7H64.44V410H39.24V304.7H5.76V284.36H97.92ZM105.327 359.78C105.327 349.7 107.307 340.76 111.267 332.96C115.347 325.16 120.807 319.16 127.647 314.96C134.607 310.76 142.347 308.66 150.867 308.66C158.307 308.66 164.787 310.16 170.307 313.16C175.947 316.16 180.447 319.94 183.807 324.5V310.28H209.187V410H183.807V395.42C180.567 400.1 176.067 404 170.307 407.12C164.667 410.12 158.127 411.62 150.687 411.62C142.287 411.62 134.607 409.46 127.647 405.14C120.807 400.82 115.347 394.76 111.267 386.96C107.307 379.04 105.327 369.98 105.327 359.78ZM183.807 360.14C183.807 354.02 182.607 348.8 180.207 344.48C177.807 340.04 174.567 336.68 170.487 334.4C166.407 332 162.027 330.8 157.347 330.8C152.667 330.8 148.347 331.94 144.387 334.22C140.427 336.5 137.187 339.86 134.667 344.3C132.267 348.62 131.067 353.78 131.067 359.78C131.067 365.78 132.267 371.06 134.667 375.62C137.187 380.06 140.427 383.48 144.387 385.88C148.467 388.28 152.787 389.48 157.347 389.48C162.027 389.48 166.407 388.34 170.487 386.06C174.567 383.66 177.807 380.3 180.207 375.98C182.607 371.54 183.807 366.26 183.807 360.14ZM284.379 410L263.859 379.04L245.679 410H218.679L251.259 359.96L218.319 310.28H246.759L267.099 341.06L285.459 310.28H312.459L279.699 359.96L312.819 410H284.379ZM315.526 359.78C315.526 349.7 317.506 340.76 321.466 332.96C325.546 325.16 331.006 319.16 337.846 314.96C344.806 310.76 352.546 308.66 361.066 308.66C368.506 308.66 374.986 310.16 380.506 313.16C386.146 316.16 390.646 319.94 394.006 324.5V310.28H419.386V410H394.006V395.42C390.766 400.1 386.266 404 380.506 407.12C374.866 410.12 368.326 411.62 360.886 411.62C352.486 411.62 344.806 409.46 337.846 405.14C331.006 400.82 325.546 394.76 321.466 386.96C317.506 379.04 315.526 369.98 315.526 359.78ZM394.006 360.14C394.006 354.02 392.806 348.8 390.406 344.48C388.006 340.04 384.766 336.68 380.686 334.4C376.606 332 372.226 330.8 367.546 330.8C362.866 330.8 358.546 331.94 354.586 334.22C350.626 336.5 347.386 339.86 344.866 344.3C342.466 348.62 341.266 353.78 341.266 359.78C341.266 365.78 342.466 371.06 344.866 375.62C347.386 380.06 350.626 383.48 354.586 385.88C358.666 388.28 362.986 389.48 367.546 389.48C372.226 389.48 376.606 388.34 380.686 386.06C384.766 383.66 388.006 380.3 390.406 375.98C392.806 371.54 394.006 366.26 394.006 360.14ZM477.658 411.62C469.498 411.62 462.178 410.18 455.698 407.3C449.218 404.3 444.058 400.28 440.218 395.24C436.498 390.2 434.458 384.62 434.098 378.5H459.478C459.958 382.34 461.818 385.52 465.058 388.04C468.418 390.56 472.558 391.82 477.478 391.82C482.278 391.82 485.998 390.86 488.638 388.94C491.398 387.02 492.778 384.56 492.778 381.56C492.778 378.32 491.098 375.92 487.738 374.36C484.498 372.68 479.278 370.88 472.078 368.96C464.638 367.16 458.518 365.3 453.718 363.38C449.038 361.46 444.958 358.52 441.478 354.56C438.118 350.6 436.438 345.26 436.438 338.54C436.438 333.02 437.998 327.98 441.118 323.42C444.358 318.86 448.918 315.26 454.798 312.62C460.798 309.98 467.818 308.66 475.858 308.66C487.738 308.66 497.218 311.66 504.298 317.66C511.378 323.54 515.278 331.52 515.998 341.6H491.878C491.518 337.64 489.838 334.52 486.838 332.24C483.958 329.84 480.058 328.64 475.138 328.64C470.578 328.64 467.038 329.48 464.518 331.16C462.118 332.84 460.918 335.18 460.918 338.18C460.918 341.54 462.598 344.12 465.958 345.92C469.318 347.6 474.538 349.34 481.618 351.14C488.818 352.94 494.758 354.8 499.438 356.72C504.118 358.64 508.138 361.64 511.498 365.72C514.978 369.68 516.778 374.96 516.898 381.56C516.898 387.32 515.278 392.48 512.038 397.04C508.918 401.6 504.358 405.2 498.358 407.84C492.478 410.36 485.578 411.62 477.658 411.62ZM564.995 359.78C564.995 349.7 566.975 340.76 570.935 332.96C575.015 325.16 580.535 319.16 587.495 314.96C594.455 310.76 602.195 308.66 610.715 308.66C617.195 308.66 623.375 310.1 629.255 312.98C635.135 315.74 639.815 319.46 643.295 324.14V276.8H668.855V410H643.295V395.24C640.175 400.16 635.795 404.12 630.155 407.12C624.515 410.12 617.975 411.62 610.535 411.62C602.135 411.62 594.455 409.46 587.495 405.14C580.535 400.82 575.015 394.76 570.935 386.96C566.975 379.04 564.995 369.98 564.995 359.78ZM643.475 360.14C643.475 354.02 642.275 348.8 639.875 344.48C637.475 340.04 634.235 336.68 630.155 334.4C626.075 332 621.695 330.8 617.015 330.8C612.335 330.8 608.015 331.94 604.055 334.22C600.095 336.5 596.855 339.86 594.335 344.3C591.935 348.62 590.735 353.78 590.735 359.78C590.735 365.78 591.935 371.06 594.335 375.62C596.855 380.06 600.095 383.48 604.055 385.88C608.135 388.28 612.455 389.48 617.015 389.48C621.695 389.48 626.075 388.34 630.155 386.06C634.235 383.66 637.475 380.3 639.875 375.98C642.275 371.54 643.475 366.26 643.475 360.14ZM781.667 357.98C781.667 361.58 781.427 364.82 780.947 367.7H708.047C708.647 374.9 711.167 380.54 715.607 384.62C720.047 388.7 725.507 390.74 731.987 390.74C741.347 390.74 748.007 386.72 751.967 378.68H779.147C776.267 388.28 770.747 396.2 762.587 402.44C754.427 408.56 744.407 411.62 732.527 411.62C722.927 411.62 714.287 409.52 706.607 405.32C699.047 401 693.107 394.94 688.787 387.14C684.587 379.34 682.487 370.34 682.487 360.14C682.487 349.82 684.587 340.76 688.787 332.96C692.987 325.16 698.867 319.16 706.427 314.96C713.987 310.76 722.687 308.66 732.527 308.66C742.007 308.66 750.467 310.7 757.907 314.78C765.467 318.86 771.287 324.68 775.367 332.24C779.567 339.68 781.667 348.26 781.667 357.98ZM755.567 350.78C755.447 344.3 753.107 339.14 748.547 335.3C743.987 331.34 738.407 329.36 731.807 329.36C725.567 329.36 720.287 331.28 715.967 335.12C711.767 338.84 709.187 344.06 708.227 350.78H755.567ZM827.831 347C827.831 334.64 830.591 323.6 836.111 313.88C841.751 304.04 849.371 296.42 858.971 291.02C868.691 285.5 879.551 282.74 891.551 282.74C905.591 282.74 917.891 286.34 928.451 293.54C939.011 300.74 946.391 310.7 950.591 323.42H921.611C918.731 317.42 914.651 312.92 909.371 309.92C904.211 306.92 898.211 305.42 891.371 305.42C884.051 305.42 877.511 307.16 871.751 310.64C866.111 314 861.671 318.8 858.431 325.04C855.311 331.28 853.751 338.6 853.751 347C853.751 355.28 855.311 362.6 858.431 368.96C861.671 375.2 866.111 380.06 871.751 383.54C877.511 386.9 884.051 388.58 891.371 388.58C898.211 388.58 904.211 387.08 909.371 384.08C914.651 380.96 918.731 376.4 921.611 370.4H950.591C946.391 383.24 939.011 393.26 928.451 400.46C918.011 407.54 905.711 411.08 891.551 411.08C879.551 411.08 868.691 408.38 858.971 402.98C849.371 397.46 841.751 389.84 836.111 380.12C830.591 370.4 827.831 359.36 827.831 347ZM961.135 359.78C961.135 349.7 963.115 340.76 967.075 332.96C971.155 325.16 976.615 319.16 983.455 314.96C990.415 310.76 998.155 308.66 1006.68 308.66C1014.12 308.66 1020.6 310.16 1026.12 313.16C1031.76 316.16 1036.26 319.94 1039.62 324.5V310.28H1065V410H1039.62V395.42C1036.38 400.1 1031.88 404 1026.12 407.12C1020.48 410.12 1013.94 411.62 1006.5 411.62C998.095 411.62 990.415 409.46 983.455 405.14C976.615 400.82 971.155 394.76 967.075 386.96C963.115 379.04 961.135 369.98 961.135 359.78ZM1039.62 360.14C1039.62 354.02 1038.42 348.8 1036.02 344.48C1033.62 340.04 1030.38 336.68 1026.3 334.4C1022.22 332 1017.84 330.8 1013.16 330.8C1008.48 330.8 1004.16 331.94 1000.2 334.22C996.235 336.5 992.995 339.86 990.475 344.3C988.075 348.62 986.875 353.78 986.875 359.78C986.875 365.78 988.075 371.06 990.475 375.62C992.995 380.06 996.235 383.48 1000.2 385.88C1004.28 388.28 1008.6 389.48 1013.16 389.48C1017.84 389.48 1022.22 388.34 1026.3 386.06C1030.38 383.66 1033.62 380.3 1036.02 375.98C1038.42 371.54 1039.62 366.26 1039.62 360.14ZM1016.58 288.14L989.755 303.26V284.9L1016.58 270.32L1043.22 284.9V303.26L1016.58 288.14ZM1208.95 308.84C1221.19 308.84 1231.03 312.62 1238.47 320.18C1246.03 327.62 1249.81 338.06 1249.81 351.5V410H1224.61V354.92C1224.61 347.12 1222.63 341.18 1218.67 337.1C1214.71 332.9 1209.31 330.8 1202.47 330.8C1195.63 330.8 1190.17 332.9 1186.09 337.1C1182.13 341.18 1180.15 347.12 1180.15 354.92V410H1154.95V354.92C1154.95 347.12 1152.97 341.18 1149.01 337.1C1145.05 332.9 1139.65 330.8 1132.81 330.8C1125.85 330.8 1120.33 332.9 1116.25 337.1C1112.29 341.18 1110.31 347.12 1110.31 354.92V410H1085.11V310.28H1110.31V322.34C1113.55 318.14 1117.69 314.84 1122.73 312.44C1127.89 310.04 1133.53 308.84 1139.65 308.84C1147.45 308.84 1154.41 310.52 1160.53 313.88C1166.65 317.12 1171.39 321.8 1174.75 327.92C1177.99 322.16 1182.67 317.54 1188.79 314.06C1195.03 310.58 1201.75 308.84 1208.95 308.84ZM1294.42 324.86C1297.66 320.06 1302.1 316.16 1307.74 313.16C1313.5 310.16 1320.04 308.66 1327.36 308.66C1335.88 308.66 1343.56 310.76 1350.4 314.96C1357.36 319.16 1362.82 325.16 1366.78 332.96C1370.86 340.64 1372.9 349.58 1372.9 359.78C1372.9 369.98 1370.86 379.04 1366.78 386.96C1362.82 394.76 1357.36 400.82 1350.4 405.14C1343.56 409.46 1335.88 411.62 1327.36 411.62C1319.92 411.62 1313.38 410.18 1307.74 407.3C1302.22 404.3 1297.78 400.46 1294.42 395.78V410H1269.22V276.8H1294.42V324.86ZM1347.16 359.78C1347.16 353.78 1345.9 348.62 1343.38 344.3C1340.98 339.86 1337.74 336.5 1333.66 334.22C1329.7 331.94 1325.38 330.8 1320.7 330.8C1316.14 330.8 1311.82 332 1307.74 334.4C1303.78 336.68 1300.54 340.04 1298.02 344.48C1295.62 348.92 1294.42 354.14 1294.42 360.14C1294.42 366.14 1295.62 371.36 1298.02 375.8C1300.54 380.24 1303.78 383.66 1307.74 386.06C1311.82 388.34 1316.14 389.48 1320.7 389.48C1325.38 389.48 1329.7 388.28 1333.66 385.88C1337.74 383.48 1340.98 380.06 1343.38 375.62C1345.9 371.18 1347.16 365.9 1347.16 359.78ZM1399.49 298.4C1395.05 298.4 1391.33 297.02 1388.33 294.26C1385.45 291.38 1384.01 287.84 1384.01 283.64C1384.01 279.44 1385.45 275.96 1388.33 273.2C1391.33 270.32 1395.05 268.88 1399.49 268.88C1403.93 268.88 1407.59 270.32 1410.47 273.2C1413.47 275.96 1414.97 279.44 1414.97 283.64C1414.97 287.84 1413.47 291.38 1410.47 294.26C1407.59 297.02 1403.93 298.4 1399.49 298.4ZM1411.91 310.28V410H1386.71V310.28H1411.91ZM1476.59 411.62C1466.99 411.62 1458.35 409.52 1450.67 405.32C1442.99 401 1436.93 394.94 1432.49 387.14C1428.17 379.34 1426.01 370.34 1426.01 360.14C1426.01 349.94 1428.23 340.94 1432.67 333.14C1437.23 325.34 1443.41 319.34 1451.21 315.14C1459.01 310.82 1467.71 308.66 1477.31 308.66C1486.91 308.66 1495.61 310.82 1503.41 315.14C1511.21 319.34 1517.33 325.34 1521.77 333.14C1526.33 340.94 1528.61 349.94 1528.61 360.14C1528.61 370.34 1526.27 379.34 1521.59 387.14C1517.03 394.94 1510.79 401 1502.87 405.32C1495.07 409.52 1486.31 411.62 1476.59 411.62ZM1476.59 389.66C1481.15 389.66 1485.41 388.58 1489.37 386.42C1493.45 384.14 1496.69 380.78 1499.09 376.34C1501.49 371.9 1502.69 366.5 1502.69 360.14C1502.69 350.66 1500.17 343.4 1495.13 338.36C1490.21 333.2 1484.15 330.62 1476.95 330.62C1469.75 330.62 1463.69 333.2 1458.77 338.36C1453.97 343.4 1451.57 350.66 1451.57 360.14C1451.57 369.62 1453.91 376.94 1458.59 382.1C1463.39 387.14 1469.39 389.66 1476.59 389.66Z" fill="#14BF9A"/>
</svg>
