<svg width="1020" height="341" viewBox="0 0 1020 341" fill="none" xmlns="http://www.w3.org/2000/svg">
<path fill-rule="evenodd" clip-rule="evenodd" d="M592.798 14.2615C597.152 9.91282 604.212 9.91282 608.566 14.2615L696.922 102.508C699.693 105.275 699.693 109.762 696.922 112.529C694.151 115.297 689.659 115.297 686.888 112.529L600.682 26.4305L429.161 197.738C424.807 202.087 417.747 202.087 413.393 197.738L328.078 112.529C325.307 109.762 325.307 105.275 328.078 102.508C330.849 99.7404 335.341 99.7404 338.112 102.508L421.277 185.569L592.798 14.2615Z" fill="#14BF9A"/>
<path fill-rule="evenodd" clip-rule="evenodd" d="M599 15C602.866 15 606 18.182 606 22.1071V206.893C606 210.818 602.866 214 599 214C595.134 214 592 210.818 592 206.893V22.1071C592 18.182 595.134 15 599 15Z" fill="#14BF9A"/>
<path fill-rule="evenodd" clip-rule="evenodd" d="M421 0C424.866 0 428 3.18198 428 7.10714V191.893C428 195.818 424.866 199 421 199C417.134 199 414 195.818 414 191.893V7.10714C414 3.18198 417.134 0 421 0Z" fill="#14BF9A"/>
<path d="M59.7929 256.962C61.4505 256.962 62.7924 257.475 63.8186 258.501C64.9237 259.448 65.4762 260.75 65.4762 262.407C65.4762 264.064 64.9237 265.366 63.8186 266.313C62.7924 267.26 61.4505 267.733 59.7929 267.733H38.7174V334.135C38.7174 335.713 38.1254 337.055 36.9414 338.159C35.8363 339.264 34.4155 339.816 32.6789 339.816C30.9423 339.816 29.482 339.264 28.298 338.159C27.1929 337.055 26.6404 335.713 26.6404 334.135V267.733H5.68329C4.02566 267.733 2.64431 267.26 1.53922 266.313C0.513074 265.287 0 263.946 0 262.289C0 260.711 0.513074 259.448 1.53922 258.501C2.64431 257.475 4.02566 256.962 5.68329 256.962H59.7929Z" fill="#14BF9A"/>
<path d="M136.918 332.478C137.155 333.188 137.273 333.938 137.273 334.727C137.273 336.305 136.72 337.607 135.615 338.633C134.589 339.659 133.366 340.171 131.945 340.171C130.84 340.171 129.814 339.856 128.866 339.225C127.998 338.514 127.288 337.567 126.735 336.384L119.394 318.985H82.8082L75.5857 336.502C75.191 337.686 74.52 338.593 73.5728 339.225C72.7046 339.856 71.7179 340.171 70.6128 340.171C68.9552 340.171 67.6922 339.737 66.8239 338.869C65.9557 338.001 65.5215 336.818 65.5215 335.319C65.5215 335.003 65.6004 334.372 65.7583 333.425L95.9508 260.277C96.5033 259.014 97.2532 258.067 98.2004 257.436C99.2266 256.726 100.371 256.449 101.634 256.607C102.818 256.607 103.884 256.923 104.831 257.554C105.778 258.185 106.449 259.093 106.844 260.277L136.918 332.478ZM114.895 308.213L101.042 275.072L87.3074 308.213H114.895Z" fill="#14BF9A"/>
<path d="M208.504 331.294C209.214 332.241 209.569 333.385 209.569 334.727C209.569 336.384 208.977 337.725 207.793 338.751C206.688 339.777 205.425 340.29 204.004 340.29C202.031 340.29 200.492 339.501 199.387 337.923L176.417 307.148L153.92 337.804C152.736 339.461 151.197 340.29 149.303 340.29C147.882 340.29 146.659 339.816 145.632 338.869C144.685 337.844 144.212 336.699 144.212 335.437C144.212 334.096 144.685 332.794 145.632 331.531L169.905 298.508L145.514 265.721C144.725 264.695 144.33 263.551 144.33 262.289C144.33 260.711 144.882 259.369 145.988 258.264C147.172 257.16 148.513 256.607 150.013 256.607C150.882 256.607 151.71 256.805 152.5 257.199C153.368 257.594 154.078 258.185 154.631 258.975L177.364 289.512L199.86 259.33C201.202 257.594 202.702 256.726 204.36 256.726C205.78 256.726 207.004 257.278 208.03 258.383C209.135 259.409 209.688 260.592 209.688 261.934C209.688 263.117 209.293 264.261 208.504 265.366L183.876 298.271L208.504 331.294Z" fill="#14BF9A"/>
<path d="M287.926 332.478C288.163 333.188 288.282 333.938 288.282 334.727C288.282 336.305 287.729 337.607 286.624 338.633C285.598 339.659 284.374 340.171 282.953 340.171C281.848 340.171 280.822 339.856 279.875 339.225C279.007 338.514 278.296 337.567 277.744 336.384L270.403 318.985H233.817L226.594 336.502C226.2 337.686 225.529 338.593 224.581 339.225C223.713 339.856 222.726 340.171 221.621 340.171C219.964 340.171 218.701 339.737 217.832 338.869C216.964 338.001 216.53 336.818 216.53 335.319C216.53 335.003 216.609 334.372 216.767 333.425L246.959 260.277C247.512 259.014 248.262 258.067 249.209 257.436C250.235 256.726 251.38 256.449 252.643 256.607C253.827 256.607 254.892 256.923 255.839 257.554C256.787 258.185 257.458 259.093 257.852 260.277L287.926 332.478ZM265.904 308.213L252.051 275.072L238.316 308.213H265.904Z" fill="#14BF9A"/>
<path d="M325.294 341C319.532 341 314.441 340.211 310.02 338.633C305.6 336.976 301.377 334.332 297.351 330.702C295.694 329.282 294.865 327.664 294.865 325.85C294.865 324.429 295.417 323.167 296.522 322.062C297.628 320.878 298.93 320.287 300.43 320.287C301.772 320.287 302.916 320.721 303.863 321.588C307.021 324.508 310.257 326.678 313.572 328.098C316.967 329.44 320.795 330.111 325.057 330.111C330.03 330.111 334.214 328.966 337.608 326.678C341.081 324.39 342.818 321.51 342.818 318.038C342.739 313.934 341.002 310.778 337.608 308.569C334.293 306.28 329.201 304.386 322.334 302.887C314.204 301.23 307.929 298.508 303.508 294.72C299.167 290.933 296.996 285.685 296.996 278.978C296.996 274.322 298.22 270.258 300.667 266.787C303.114 263.236 306.508 260.513 310.849 258.619C315.191 256.726 320.084 255.779 325.531 255.779C330.425 255.779 335.043 256.568 339.384 258.146C343.725 259.724 347.238 261.815 349.922 264.419C351.737 265.997 352.645 267.694 352.645 269.509C352.645 270.929 352.092 272.192 350.987 273.296C349.961 274.401 348.698 274.954 347.198 274.954C346.093 274.954 345.186 274.638 344.475 274.007C342.423 271.955 339.581 270.219 335.95 268.799C332.319 267.378 328.846 266.668 325.531 266.668C320.242 266.668 316.019 267.773 312.862 269.982C309.783 272.113 308.244 274.954 308.244 278.504C308.244 282.371 309.783 285.33 312.862 287.382C316.019 289.433 320.676 291.169 326.833 292.59C332.99 293.931 338.003 295.509 341.87 297.324C345.817 299.139 348.856 301.664 350.987 304.899C353.119 308.135 354.184 312.356 354.184 317.564C354.184 322.141 352.882 326.205 350.277 329.756C347.751 333.306 344.278 336.068 339.858 338.041C335.437 340.014 330.583 341 325.294 341Z" fill="#14BF9A"/>
<path d="M436.755 256.962C444.174 256.962 450.529 258.817 455.817 262.525C461.106 266.234 465.092 271.245 467.776 277.558C470.46 283.791 471.802 290.735 471.802 298.389C471.802 306.122 470.46 313.145 467.776 319.458C465.092 325.692 461.106 330.663 455.817 334.372C450.529 338.001 444.174 339.816 436.755 339.816H407.628C406.049 339.816 404.707 339.264 403.602 338.159C402.497 337.055 401.944 335.713 401.944 334.135V262.644C401.944 261.066 402.497 259.724 403.602 258.619C404.707 257.515 406.049 256.962 407.628 256.962H436.755ZM435.571 328.927C443.622 328.927 449.66 326.086 453.686 320.405C457.712 314.645 459.725 307.306 459.725 298.389C459.725 289.552 457.672 282.253 453.568 276.492C449.542 270.732 443.543 267.852 435.571 267.852H413.666V328.927H435.571Z" fill="#14BF9A"/>
<path d="M533.702 328.927C535.359 328.927 536.701 329.479 537.727 330.584C538.832 331.689 539.385 332.991 539.385 334.49C539.385 336.068 538.832 337.37 537.727 338.396C536.701 339.343 535.359 339.816 533.702 339.816H492.498C490.919 339.816 489.577 339.264 488.472 338.159C487.367 337.055 486.815 335.713 486.815 334.135V262.644C486.815 261.066 487.367 259.724 488.472 258.619C489.577 257.515 490.919 256.962 492.498 256.962H533.702C535.359 256.962 536.701 257.475 537.727 258.501C538.832 259.527 539.385 260.868 539.385 262.525C539.385 264.104 538.832 265.406 537.727 266.431C536.701 267.378 535.359 267.852 533.702 267.852H498.536V291.998H528.374C530.031 291.998 531.373 292.511 532.399 293.537C533.504 294.562 534.057 295.864 534.057 297.442C534.057 299.1 533.504 300.402 532.399 301.348C531.373 302.295 530.031 302.769 528.374 302.769H498.536V328.927H533.702Z" fill="#14BF9A"/>
<path d="M646.261 261.815C648.155 262.841 649.103 264.419 649.103 266.55C649.103 267.97 648.629 269.272 647.682 270.456C646.735 271.718 645.432 272.35 643.775 272.35C642.669 272.35 641.604 272.073 640.578 271.521C635.684 268.759 630.395 267.378 624.712 267.378C618.792 267.378 613.543 268.68 608.964 271.284C604.465 273.888 600.953 277.558 598.427 282.292C595.901 286.948 594.638 292.313 594.638 298.389C594.638 304.939 595.94 310.581 598.545 315.315C601.15 320.05 604.741 323.68 609.32 326.205C613.898 328.651 619.029 329.874 624.712 329.874C630.553 329.874 635.842 328.454 640.578 325.613C641.525 325.139 642.551 324.903 643.656 324.903C645.393 324.903 646.774 325.573 647.8 326.915C648.747 328.098 649.221 329.361 649.221 330.702C649.221 331.649 648.945 332.557 648.392 333.425C647.919 334.214 647.248 334.845 646.379 335.319C643.301 337.055 639.828 338.435 635.96 339.461C632.171 340.487 628.422 341 624.712 341C617.055 341 609.991 339.303 603.518 335.91C597.124 332.517 591.993 327.586 588.126 321.115C584.337 314.645 582.442 307.069 582.442 298.389C582.442 290.42 584.258 283.239 587.889 276.847C591.599 270.377 596.651 265.327 603.044 261.697C609.517 257.988 616.739 256.134 624.712 256.134C632.369 256.134 639.552 258.028 646.261 261.815Z" fill="#14BF9A"/>
<path d="M726.383 332.478C726.62 333.188 726.738 333.938 726.738 334.727C726.738 336.305 726.186 337.607 725.081 338.633C724.054 339.659 722.831 340.171 721.41 340.171C720.305 340.171 719.279 339.856 718.332 339.225C717.463 338.514 716.753 337.567 716.2 336.384L708.859 318.985H672.273L665.051 336.502C664.656 337.686 663.985 338.593 663.038 339.225C662.17 339.856 661.183 340.171 660.078 340.171C658.42 340.171 657.157 339.737 656.289 338.869C655.421 338.001 654.987 336.818 654.987 335.319C654.987 335.003 655.066 334.372 655.223 333.425L685.416 260.277C685.968 259.014 686.718 258.067 687.666 257.436C688.692 256.726 689.836 256.449 691.099 256.607C692.283 256.607 693.349 256.923 694.296 257.554C695.243 258.185 695.914 259.093 696.309 260.277L726.383 332.478ZM704.36 308.213L690.507 275.072L676.773 308.213H704.36ZM705.899 245.836C706.847 246.862 707.32 247.809 707.32 248.677C707.32 249.308 707.004 249.9 706.373 250.452C705.82 250.926 705.15 251.163 704.36 251.163C703.808 251.163 703.097 250.965 702.229 250.571C701.361 250.097 700.453 249.584 699.506 249.032L690.862 243.469L682.574 249.032C681.627 249.663 680.719 250.176 679.851 250.571C679.062 250.965 678.351 251.163 677.72 251.163C676.93 251.163 676.22 250.926 675.589 250.452C675.036 249.9 674.76 249.308 674.76 248.677C674.76 248.204 674.878 247.77 675.115 247.375C675.352 246.902 675.707 246.389 676.181 245.836L684.35 236.841C685.219 235.815 686.087 235.105 686.955 234.71C687.823 234.237 688.889 234 690.152 234H691.81C693.073 234 694.138 234.237 695.006 234.71C695.954 235.184 696.861 235.894 697.73 236.841L705.899 245.836Z" fill="#14BF9A"/>
<path d="M810.638 256.844C812.216 256.923 813.558 257.515 814.663 258.619C815.769 259.645 816.321 260.947 816.321 262.525V334.135C816.321 335.713 815.769 337.055 814.663 338.159C813.637 339.264 812.256 339.816 810.519 339.816C808.783 339.816 807.362 339.303 806.257 338.278C805.152 337.173 804.599 335.792 804.599 334.135V279.333L781.629 314.132C781.077 314.842 780.366 315.434 779.498 315.907C778.709 316.381 777.88 316.578 777.012 316.499C776.222 316.578 775.394 316.381 774.525 315.907C773.736 315.434 773.065 314.842 772.512 314.132L749.424 278.268V334.135C749.424 335.792 748.911 337.173 747.885 338.278C746.938 339.303 745.635 339.816 743.978 339.816C742.399 339.816 741.097 339.303 740.07 338.278C739.123 337.173 738.65 335.792 738.65 334.135V262.525C738.65 261.026 739.202 259.724 740.307 258.619C741.412 257.436 742.794 256.844 744.451 256.844C745.398 256.844 746.306 257.081 747.174 257.554C748.122 258.028 748.872 258.659 749.424 259.448L777.485 301.94L805.902 259.448C807.165 257.712 808.743 256.844 810.638 256.844Z" fill="#14BF9A"/>
<path d="M883.486 294.602C887.828 296.101 891.38 298.587 894.143 302.059C896.984 305.452 898.405 309.91 898.405 315.434C898.405 324.192 895.84 330.466 890.709 334.253C885.657 337.962 879.461 339.816 872.12 339.816H841.691C840.112 339.816 838.77 339.264 837.665 338.159C836.56 337.055 836.007 335.713 836.007 334.135V262.644C836.007 261.066 836.56 259.724 837.665 258.619C838.77 257.515 840.112 256.962 841.691 256.962H872.12C879.303 256.962 884.749 258.738 888.459 262.289C892.248 265.84 894.143 270.969 894.143 277.676C894.143 281.463 893.235 284.857 891.419 287.855C889.604 290.775 886.96 293.024 883.486 294.602ZM881.947 279.451C881.947 275.743 880.921 272.941 878.869 271.048C876.895 269.075 874.093 268.089 870.462 268.089H848.084V291.169H870.699C873.935 291.09 876.619 290.065 878.75 288.092C880.882 286.04 881.947 283.16 881.947 279.451ZM872.001 328.927C876.343 328.927 879.816 327.822 882.421 325.613C885.026 323.324 886.328 319.931 886.328 315.434C886.328 306.675 881.355 302.295 871.409 302.295H848.084V328.927H872.001Z" fill="#14BF9A"/>
<path d="M925.083 334.017C925.083 335.674 924.491 337.055 923.307 338.159C922.123 339.264 920.742 339.816 919.163 339.816C917.427 339.816 916.006 339.264 914.901 338.159C913.875 337.055 913.362 335.674 913.362 334.017V262.644C913.362 261.066 913.914 259.724 915.019 258.619C916.124 257.515 917.545 256.962 919.282 256.962C920.86 256.962 922.202 257.515 923.307 258.619C924.491 259.724 925.083 261.066 925.083 262.644V334.017Z" fill="#14BF9A"/>
<path d="M1020 298.389C1020 306.359 1018.26 313.579 1014.79 320.05C1011.4 326.52 1006.66 331.649 1000.58 335.437C994.504 339.146 987.637 341 979.98 341C972.324 341 965.456 339.146 959.378 335.437C953.3 331.649 948.525 326.52 945.052 320.05C941.657 313.579 939.96 306.359 939.96 298.389C939.96 290.42 941.657 283.199 945.052 276.729C948.525 270.258 953.3 265.169 959.378 261.46C965.456 257.673 972.324 255.779 979.98 255.779C987.637 255.779 994.504 257.673 1000.58 261.46C1006.66 265.169 1011.4 270.258 1014.79 276.729C1018.26 283.199 1020 290.42 1020 298.389ZM1007.8 298.389C1007.8 292.471 1006.62 287.145 1004.25 282.41C1001.88 277.597 998.569 273.849 994.307 271.166C990.123 268.404 985.348 267.023 979.98 267.023C974.613 267.023 969.798 268.365 965.535 271.048C961.352 273.73 958.076 277.479 955.708 282.292C953.34 287.027 952.156 292.392 952.156 298.389C952.156 304.308 953.34 309.673 955.708 314.487C958.076 319.221 961.352 322.969 965.535 325.731C969.798 328.414 974.613 329.756 979.98 329.756C985.348 329.756 990.123 328.414 994.307 325.731C998.569 322.969 1001.88 319.221 1004.25 314.487C1006.62 309.673 1007.8 304.308 1007.8 298.389Z" fill="#14BF9A"/>
</svg>
