<svg width="189" height="109" viewBox="0 0 189 109" fill="none" xmlns="http://www.w3.org/2000/svg">
<path fill-rule="evenodd" clip-rule="evenodd" d="M135.187 7.12795C137.394 4.9217 140.971 4.9217 143.177 7.12795L187.947 51.8981C189.351 53.3021 189.351 55.5784 187.947 56.9824C186.543 58.3864 184.267 58.3864 182.863 56.9824L139.182 13.3017L52.2719 100.212C50.0657 102.418 46.4887 102.418 44.2824 100.212L1.05298 56.9824C-0.350994 55.5784 -0.350994 53.3021 1.05298 51.8981C2.45696 50.4942 4.73326 50.4942 6.13723 51.8981L48.2772 94.0381L135.187 7.12795Z" fill="#14BF9A"/>
<path fill-rule="evenodd" clip-rule="evenodd" d="M138.668 7.70386C140.654 7.70386 142.264 9.31344 142.264 11.299V104.772C142.264 106.757 140.654 108.367 138.668 108.367C136.683 108.367 135.073 106.757 135.073 104.772V11.299C135.073 9.31344 136.683 7.70386 138.668 7.70386Z" fill="#14BF9A"/>
<path fill-rule="evenodd" clip-rule="evenodd" d="M48.2772 0C50.2627 0 51.8723 1.60958 51.8723 3.59511V97.0679C51.8723 99.0534 50.2627 100.663 48.2772 100.663C46.2917 100.663 44.6821 99.0534 44.6821 97.0679V3.59511C44.6821 1.60958 46.2917 0 48.2772 0Z" fill="#14BF9A"/>
</svg>
